<?xml version="1.0" standalone="no"?>
<!DOCTYPE svg PUBLIC "-//W3C//DTD SVG 20010904//EN"
 "http://www.w3.org/TR/2001/REC-SVG-20010904/DTD/svg10.dtd">
<svg version="1.0" xmlns="http://www.w3.org/2000/svg"
 width="540.000000pt" height="540.000000pt" viewBox="0 0 540.000000 540.000000"
 preserveAspectRatio="xMidYMid meet">
<metadata>
Created by potrace 1.14, written by Peter Selinger 2001-2017
</metadata>
<g transform="translate(0.000000,540.000000) scale(0.100000,-0.100000)"
fill="#000000" stroke="none">
<path d="M2257 4584 c-1 -1 -27 -4 -58 -7 -33 -3 -83 -18 -121 -36 -57 -27
-105 -71 -413 -378 -191 -192 -359 -366 -373 -388 -52 -81 -63 -137 -64 -295
0 -302 -16 -275 430 -721 382 -381 400 -396 521 -419 31 -6 237 -10 491 -10
l437 0 139 -138 c76 -77 145 -146 152 -154 10 -13 -11 -38 -139 -167 -97 -97
-159 -151 -173 -152 -11 0 -213 0 -448 0 l-428 -1 -194 195 -194 195 -283
-284 c-156 -157 -286 -287 -288 -289 -8 -9 549 -553 592 -578 98 -58 102 -58
844 -55 752 3 706 -1 810 70 74 50 715 699 745 755 44 79 55 150 52 323 -2
164 -10 203 -59 286 -29 49 -677 701 -738 742 -101 69 -83 67 -608 70 l-475 3
-152 152 -152 153 154 154 154 154 343 1 344 0 192 -192 c105 -106 195 -193
200 -193 4 0 136 128 292 284 l283 284 -263 264 c-145 145 -280 276 -300 291
-55 42 -145 72 -224 76 -66 3 -1025 8 -1028 5z"/>
</g>
</svg>
